<svg width="32" height="32" viewBox="0 0 32 32" fill="none" xmlns="http://www.w3.org/2000/svg">
<path fill-rule="evenodd" clip-rule="evenodd" d="M28.9022 0.695801H30.1507V1.9395H28.9022V0.695801ZM31.4005 1.93968H30.152V3.18337H31.4005V1.93968ZM28.9026 1.93969H30.1507V3.18338H28.9026H28.9022H27.6541V1.93969H28.9022H28.9026ZM3.60338 17.0143V3.18322H4.86999V17.0143H3.60338ZM17.1457 17.8991H31.3442V19.1327H23.3087V31.7241H17.1457V17.8991ZM7.51747 5.09691L7.51345 21.3713H0.229004V27.353H13.7268V11.0486H27.3031V5.09691H7.51747ZM28.9022 4.42888V3.18549H30.1507V4.42888V4.42918V5.67257H28.9022V4.42918V4.42888ZM27.654 1.93969H26.4055V3.18338H27.654V1.93969Z" fill="url(#paint0_linear_6638_2342)"/>
<defs>
<linearGradient id="paint0_linear_6638_2342" x1="2.36629" y1="3.4336" x2="24.2543" y2="29.6744" gradientUnits="userSpaceOnUse">
<stop stop-color="#01A9FF"/>
<stop offset="1" stop-color="#0160FF"/>
</linearGradient>
</defs>
</svg>
